<?xml version="1.0" standalone="no"?>
<!DOCTYPE svg PUBLIC "-//W3C//DTD SVG 20010904//EN"
 "http://www.w3.org/TR/2001/REC-SVG-20010904/DTD/svg10.dtd">
<svg version="1.0" xmlns="http://www.w3.org/2000/svg"
 width="221.000000pt" height="221.000000pt" viewBox="0 0 221.000000 221.000000"
 preserveAspectRatio="xMidYMid meet">

<g transform="translate(0.000000,221.000000) scale(0.100000,-0.100000)"
fill="#ffffff" stroke="none">
<path d="M968 2200 c-181 -26 -298 -136 -345 -327 -12 -50 -17 -115 -17 -248
0 -170 1 -185 27 -261 62 -184 208 -336 381 -396 216 -74 499 114 593 396 26
76 27 91 27 261 0 200 -13 273 -63 373 -30 60 -96 129 -149 156 -82 42 -312
65 -454 46z m29 -410 c77 -90 240 -134 420 -112 54 7 108 15 121 18 22 6 22 5
22 -99 0 -130 -12 -191 -56 -284 -61 -128 -176 -231 -308 -274 -59 -20 -73
-21 -117 -11 -138 32 -278 148 -342 282 -45 96 -57 156 -57 286 l0 104 41 45
c48 52 121 84 193 84 45 1 52 -2 83 -39z"/>
<path d="M776 1641 c-61 -13 -64 -24 -33 -143 8 -32 21 -65 28 -74 33 -40 131
-56 211 -34 41 12 94 66 104 108 16 67 38 67 68 -1 41 -93 108 -127 223 -114
61 7 95 34 111 88 7 24 18 60 24 80 13 47 3 77 -30 86 -53 15 -254 8 -296 -10
-48 -21 -83 -21 -132 -1 -44 19 -216 28 -278 15z m249 -51 c51 -19 20 -131
-44 -157 -53 -22 -148 -13 -172 16 -41 50 -33 131 13 151 26 11 165 4 203 -10z
m416 -9 c23 -28 24 -60 4 -106 -16 -40 -46 -55 -111 -55 -65 0 -108 21 -127
63 -19 39 -22 93 -6 102 20 13 105 24 163 21 48 -2 63 -7 77 -25z"/>
<path d="M655 924 c-223 -121 -321 -181 -350 -216 -34 -39 -95 -167 -101 -212
-4 -27 4 -41 60 -107 151 -177 355 -302 593 -361 127 -32 369 -32 496 0 248
62 459 194 612 384 76 94 77 103 30 203 -51 108 -86 134 -392 299 -160 86
-191 97 -211 73 -11 -13 -91 -52 -163 -81 -32 -12 -39 -23 -69 -95 -18 -44
-36 -81 -40 -81 -4 0 -22 37 -40 81 -30 72 -37 83 -69 95 -72 29 -152 68 -163
81 -19 24 -52 13 -193 -63z m519 -443 c3 -5 2 -22 -3 -37 -6 -16 -21 -68 -36
-116 -21 -72 -29 -88 -45 -88 -11 0 -20 5 -20 11 0 26 63 225 74 231 15 10 24
10 30 -1z m-154 -71 c0 -15 -13 -26 -45 -40 -25 -11 -45 -22 -45 -25 0 -3 20
-15 45 -26 31 -14 45 -26 45 -39 0 -28 -19 -25 -95 12 -89 44 -89 64 3 106 81
37 92 38 92 12z m289 -11 c95 -43 96 -62 6 -107 -78 -38 -98 -40 -93 -10 2 15
16 26 46 37 23 8 42 19 42 23 0 5 -20 17 -45 28 -32 14 -45 25 -45 40 0 26 5
26 89 -11z"/>
</g>
</svg>
